<?xml version="1.0" encoding="UTF-8"?>
<svg xmlns="http://www.w3.org/2000/svg" width="262.644" height="56.096" viewBox="0 0 262.644 56.096">
  <defs>
    <style>
      .cls-1 {
        fill: #9f1f34;
      }

      .cls-2 {
        fill: #2b2f30;
      }
      
      .fetcher-text {
        font-family: "Gotham", "Helvetica Neue", Arial, sans-serif;
        font-size: 12px;
        font-weight: 500;
        fill: #9f1f34;
        text-anchor: end;
        alignment-baseline: middle;
        text-transform: lowercase;
      }
    </style>
  </defs>
  <g id="OC_Fetcher_Logo" data-name="OC Fetcher Logo" transform="translate(-5 -17.6)">
    <!-- Original OpenCorporates logo elements -->
    <path id="Path_1" data-name="Path 1" class="cls-1" d="M21.98,33.485A9.343,9.343,0,0,0,14.887,30.5a9.106,9.106,0,0,0-7.093,2.958A10.881,10.881,0,0,0,5,41.126a10.732,10.732,0,0,0,2.766,7.641,9.185,9.185,0,0,0,7.093,2.958,9.3,9.3,0,0,0,7.093-2.985A10.722,10.722,0,0,0,24.746,41.1,10.849,10.849,0,0,0,21.98,33.485Zm-2.821,14.05a5.047,5.047,0,0,1-8.572-.055,11.111,11.111,0,0,1-1.616-6.409,11.554,11.554,0,0,1,1.588-6.409,4.992,4.992,0,0,1,8.545,0,11.111,11.111,0,0,1,1.616,6.409,10.593,10.593,0,0,1-1.561,6.463ZM43.205,33.293A7.213,7.213,0,0,0,37.344,30.5a7.5,7.5,0,0,0-2.985.63A15.184,15.184,0,0,0,31.1,33.074V30.746H29.512l-4.93,1.506v1.315H27.54V58.216l-.657.657-2.3.219V60.6h9.969V59.092l-2.711-.219-.739-.657.027-7.093c.767.11,1.506.219,2.164.274a13.726,13.726,0,0,0,1.78.082,10.085,10.085,0,0,0,7.614-3.013,11.123,11.123,0,0,0,2.876-8.024A11.208,11.208,0,0,0,43.205,33.293Zm-3.4,13.94a6.342,6.342,0,0,1-5.121,2.355,7.422,7.422,0,0,1-1.7-.164,15.59,15.59,0,0,1-1.944-.493V34.663a14.538,14.538,0,0,1,2.355-1.1,7.379,7.379,0,0,1,2.081-.356,5.369,5.369,0,0,1,4.492,2.136,8.826,8.826,0,0,1,1.7,5.7A8.73,8.73,0,0,1,39.809,47.234ZM58.1,49.37a6.408,6.408,0,0,1-5.2-2.328,9.7,9.7,0,0,1-1.945-6.326V40.25H64.732a3.144,3.144,0,0,0,.027-.493V38.99A8.744,8.744,0,0,0,62.7,32.855a7.245,7.245,0,0,0-5.587-2.246,9.171,9.171,0,0,0-7.066,3.013,11.192,11.192,0,0,0-2.766,7.805,10.869,10.869,0,0,0,2.629,7.531,8.744,8.744,0,0,0,6.819,2.9,13.242,13.242,0,0,0,4.081-.657,14.755,14.755,0,0,0,3.916-1.89V46.987A16.461,16.461,0,0,1,61.2,48.849,10.329,10.329,0,0,1,58.1,49.37ZM52.9,34.142a4.8,4.8,0,0,1,3.642-1.671,4.08,4.08,0,0,1,3.286,1.369,6.066,6.066,0,0,1,1.123,3.916v.657h-9.8A6.933,6.933,0,0,1,52.9,34.142ZM75.96,51.369V49.808l-2.027-.192-.739-.685V34.745A14.289,14.289,0,0,1,75.741,33.7a8.135,8.135,0,0,1,2.218-.356,4.489,4.489,0,0,1,3.286,1.013A4.675,4.675,0,0,1,82.2,37.73V48.986l-.739.685-2.027.192v1.561H88.75V49.863l-2.3-.192-.739-.685v-12a7.1,7.1,0,0,0-1.479-4.82A5.427,5.427,0,0,0,79.959,30.5a8.449,8.449,0,0,0-2.766.575,32.483,32.483,0,0,0-4.108,1.972V30.719H71.469l-4.93,1.506V33.54h3.013V48.9l-.739.685-2.3.192v1.561l9.449.027Z" transform="translate(0 -9.367)"></path>
    <path id="Path_2" data-name="Path 2" class="cls-2" d="M323.465,39.811a6.669,6.669,0,0,1-5.286-2.218,9,9,0,0,1-1.944-6.08,10.625,10.625,0,0,1,1.7-6.272,5.318,5.318,0,0,1,4.546-2.355,2.76,2.76,0,0,1,1.041.164,6.657,6.657,0,0,1,1.013.438v3.478a4.428,4.428,0,0,0,.959.466,2.821,2.821,0,0,0,.959.164,2.207,2.207,0,0,0,2.355-2.246,3.4,3.4,0,0,0-1.7-3.013,8.419,8.419,0,0,0-4.656-1.123,9.419,9.419,0,0,0-7.258,2.958,10.744,10.744,0,0,0-2.793,7.668,11.059,11.059,0,0,0,2.629,7.641,8.877,8.877,0,0,0,6.956,2.9,12.614,12.614,0,0,0,3.423-.493,14.964,14.964,0,0,0,3.478-1.561V38.113a11.315,11.315,0,0,1-2.684,1.369,13.359,13.359,0,0,1-2.739.329M346.8,24.118a9.343,9.343,0,0,0-7.093-2.985,9.106,9.106,0,0,0-7.093,2.958,10.824,10.824,0,0,0-2.766,7.641,10.733,10.733,0,0,0,2.766,7.641,9.952,9.952,0,0,0,14.187-.027,10.722,10.722,0,0,0,2.793-7.641A10.846,10.846,0,0,0,346.8,24.118Zm-2.821,14.05a5.047,5.047,0,0,1-8.572-.055A11.111,11.111,0,0,1,333.79,31.7a11.554,11.554,0,0,1,1.588-6.409,4.992,4.992,0,0,1,8.545,0,11.111,11.111,0,0,1,1.616,6.409,10.784,10.784,0,0,1-1.561,6.463Zm18.706-17.035a4.264,4.264,0,0,0-.657.027.8.8,0,0,0-.383.082c-.822.657-1.616,1.315-2.355,2.027-.74.685-1.479,1.4-2.164,2.081V21.379h-1.616l-4.93,1.506V24.2h2.985V39.565l-.739.685-2.246.192V42h10.188V40.441l-2.985-.192-.739-.685V27.459a12.081,12.081,0,0,1,2.492-2.355,3.994,3.994,0,0,1,2.136-.767,2.518,2.518,0,0,1,1.205.274,2.828,2.828,0,0,1,.959.767H365.2v-3.67a5.959,5.959,0,0,0-1.287-.438,8.928,8.928,0,0,0-1.232-.137m22.074,2.793a7.213,7.213,0,0,0-5.861-2.793,7.5,7.5,0,0,0-2.985.63,15.184,15.184,0,0,0-3.259,1.944V21.379h-1.588l-4.93,1.506V24.2h2.958V48.849l-.657.657-2.3.219v1.506H376.1V49.725l-2.711-.219-.739-.657.027-7.093c.767.11,1.506.219,2.164.274a13.727,13.727,0,0,0,1.78.082,10.085,10.085,0,0,0,7.614-3.013,11.286,11.286,0,0,0,2.876-8.024A11.368,11.368,0,0,0,384.757,23.926Zm-3.369,13.94a6.342,6.342,0,0,1-5.121,2.355,7.422,7.422,0,0,1-1.7-.164,15.588,15.588,0,0,1-1.944-.493V25.3a14.538,14.538,0,0,1,2.355-1.1,7.38,7.38,0,0,1,2.082-.356,5.369,5.369,0,0,1,4.491,2.136,8.826,8.826,0,0,1,1.7,5.7A9.278,9.278,0,0,1,381.389,37.867Zm24.457-13.748a9.343,9.343,0,0,0-7.093-2.985,9.106,9.106,0,0,0-7.093,2.958,10.824,10.824,0,0,0-2.766,7.641,10.732,10.732,0,0,0,2.766,7.641,9.952,9.952,0,0,0,14.187-.027,10.722,10.722,0,0,0,2.793-7.641A10.972,10.972,0,0,0,405.845,24.118Zm-2.821,14.05a5.047,5.047,0,0,1-8.572-.055,11.112,11.112,0,0,1-1.616-6.409,11.555,11.555,0,0,1,1.588-6.409,4.992,4.992,0,0,1,8.545,0,11.112,11.112,0,0,1,1.616,6.409,10.784,10.784,0,0,1-1.561,6.463ZM421.73,21.133a4.457,4.457,0,0,0-.657.027.8.8,0,0,0-.383.082c-.822.657-1.616,1.315-2.355,2.027-.74.685-1.479,1.4-2.164,2.081V21.379h-1.616l-4.93,1.506V24.2h2.985V39.565l-.739.685-2.246.192V42h10.243V40.441l-2.958-.192-.739-.685V27.459a12.083,12.083,0,0,1,2.492-2.355,3.994,3.994,0,0,1,2.136-.767,2.518,2.518,0,0,1,1.2.274,2.829,2.829,0,0,1,.959.767h1.369v-3.67a5.96,5.96,0,0,0-1.287-.438c-.52-.055-.9-.137-1.315-.137M441.7,40.277l-.739-.685V27.268c0-2.136-.493-3.7-1.506-4.656s-2.629-1.424-4.848-1.424a12.738,12.738,0,0,0-6.217,1.369c-1.589.931-2.41,2.054-2.41,3.451a1.361,1.361,0,0,0,.274,1.013,1.483,1.483,0,0,0,1.041.274h2.9v-3.56a11.759,11.759,0,0,1,1.616-.493,7.822,7.822,0,0,1,1.589-.164,3.775,3.775,0,0,1,3.013,1.041,6,6,0,0,1,.849,3.725v1.369c-5.313,1.287-8.682,2.437-10.161,3.451a4.917,4.917,0,0,0-2.218,4.272,5.373,5.373,0,0,0,1.479,3.944,5.2,5.2,0,0,0,3.944,1.506,9.185,9.185,0,0,0,3.232-.657,16.927,16.927,0,0,0,3.752-2.081l.548,2.492h5.97V40.578Zm-7.258-.739a7.007,7.007,0,0,1-2.3.466,3.346,3.346,0,0,1-2.492-.931,3.411,3.411,0,0,1-.931-2.52,3.834,3.834,0,0,1,1.671-3.232c1.123-.822,3.451-1.7,6.984-2.684v7.477A18.852,18.852,0,0,1,434.438,39.537ZM449.884,17.6H448.3l-1.835,3.944-2.793,1.232v1.315h2.684V37.784c0,1.616.3,2.766.959,3.369a4.913,4.913,0,0,0,3.451.931,19,19,0,0,0,2.711-.219,24.177,24.177,0,0,0,2.876-.685V39.592c-.548.11-1.041.219-1.506.274-.493.027-.959.082-1.424.082a3.438,3.438,0,0,1-2.766-.931c-.52-.63-.767-1.862-.767-3.7v-11.2h6.491V22.146h-6.491ZM468.151,40a6.407,6.407,0,0,1-5.2-2.328A9.7,9.7,0,0,1,461,31.348v-.466h13.776a3.154,3.154,0,0,0,.027-.493v-.767a8.744,8.744,0,0,0-2.054-6.135,7.245,7.245,0,0,0-5.587-2.246,9.171,9.171,0,0,0-7.066,3.013,11.145,11.145,0,0,0-2.766,7.805,10.869,10.869,0,0,0,2.629,7.531,8.744,8.744,0,0,0,6.819,2.9,13.242,13.242,0,0,0,4.081-.657,14.754,14.754,0,0,0,3.916-1.89V37.62a16.461,16.461,0,0,1-3.533,1.862A9.783,9.783,0,0,1,468.151,40Zm-5.176-15.227a4.8,4.8,0,0,1,3.643-1.671,4.08,4.08,0,0,1,3.286,1.369,6.066,6.066,0,0,1,1.123,3.916v.657h-9.8A7.1,7.1,0,0,1,462.975,24.775Zm27.332,9.175a3.762,3.762,0,0,0-1.205-1.561,18.017,18.017,0,0,0-3.478-1.972c-.466-.192-.767-.356-1.013-.466a9.4,9.4,0,0,1-2.876-1.862A2.934,2.934,0,0,1,481,26.063a2.8,2.8,0,0,1,.931-2.246,3.8,3.8,0,0,1,2.6-.822,6.487,6.487,0,0,1,1.561.219,10.9,10.9,0,0,1,1.616.685l.356,3.013h2.081V22.064a10.443,10.443,0,0,0-2.328-.685,13.656,13.656,0,0,0-2.684-.219,8.613,8.613,0,0,0-5.56,1.561A5.294,5.294,0,0,0,477.6,27.1a4.557,4.557,0,0,0,1.15,3.15,13.154,13.154,0,0,0,4.355,2.684,11.643,11.643,0,0,1,3.56,2.136,3.415,3.415,0,0,1-.356,4.628,4.3,4.3,0,0,1-2.9.931,6.6,6.6,0,0,1-3.615-.986l-.493-3.615h-2.054v5.5a10.649,10.649,0,0,0,2.6.657,16.869,16.869,0,0,0,2.958.219,9.267,9.267,0,0,0,5.861-1.7,5.664,5.664,0,0,0,2.081-4.683,5.047,5.047,0,0,0-.438-2.081" transform="translate(-223.212)"></path>
    <ellipse id="Ellipse_2" data-name="Ellipse 2" class="cls-1" cx="2.602" cy="2.602" rx="2.602" ry="2.602" transform="translate(262.44 48.493)"></ellipse>
    <ellipse id="Ellipse_3" data-name="Ellipse 3" class="cls-1" cx="2.602" cy="2.602" rx="2.602" ry="2.602" transform="translate(251.157 48.493)"></ellipse>
    <ellipse id="Ellipse_4" data-name="Ellipse 4" class="cls-1" cx="2.602" cy="2.602" rx="2.602" ry="2.602" transform="translate(239.873 48.493)"></ellipse>
    <ellipse id="Ellipse_5" data-name="Ellipse 5" class="cls-1" cx="2.602" cy="2.602" rx="2.602" ry="2.602" transform="translate(228.562 48.493)"></ellipse>
    <ellipse id="Ellipse_6" data-name="Ellipse 6" class="cls-1" cx="2.602" cy="2.602" rx="2.602" ry="2.602" transform="translate(217.279 48.493)"></ellipse>
    
    <!-- "fetcher" text positioned just before the dots -->
    <text x="210" y="51.095" class="fetcher-text">fetcher</text>
  </g>
</svg>
